Patient4_TMGait_0pt3_03_right_13_GRF.mot
version=1
nRows=45
nColumns=19
inDegrees=no
endheader
time	F1x	F1y	F1z	M1x	M1y	M1z	F2x	F2y	F2z	M2x	M2y	M2z	EC1x	EC1y	EC1z	EC2x	EC2y	EC2z
24.64	-12.1874	795.0312	61.3535	-268.6673	-61.2925	781.9984	1.7263	46.3877	-8.6587	15.5896	7.4825	43.1483	-0.0592	0.0182	-0.0073	-0.0462	0.0165	0.9585
24.6584	-11.3637	810.3025	62.3445	-273.9629	-61.7291	795.4108	-0.17002	36.3276	-6.6184	12.3353	6.2445	33.5513	-0.0592	0.0182	-0.0073	-0.0462	0.0165	0.9585
24.6767	-10.4636	826.6745	63.2286	-279.6644	-61.9245	809.1001	-1.5193	26.5869	-4.7128	9.1419	4.9501	24.3738	-0.0592	0.0182	-0.0073	-0.0462	0.0165	0.9585
24.6951	-9.4246	842.1654	63.9011	-285.0943	-61.7591	821.1503	-2.1765	17.9933	-3.0803	6.2892	3.6711	16.3761	-0.0592	0.0182	-0.0073	-0.0462	0.0165	0.9585
24.7134	-8.1518	854.4987	64.2958	-289.4741	-61.1503	829.4519	-2.2272	11.0709	-1.7969	3.9662	2.5038	10.0037	-0.0592	0.0182	-0.0073	-0.0462	0.0165	0.9585
24.7318	-6.5381	861.4681	64.3563	-292.0452	-60.0328	832.0216	-1.9263	6.0134	-0.88284	2.252	1.5571	5.4001	-0.0592	0.0182	-0.0073	-0.0462	0.0165	0.9585
24.7501	-4.4944	861.3233	64.0227	-292.2024	-58.3538	827.3546	-1.4816	2.6722	-0.30078	1.1069	0.87126	2.4079	-0.0592	0.0182	-0.0073	-0.0462	0.0165	0.9585
24.7685	-1.9605	853.1412	63.2397	-289.6232	-56.0749	814.7481	-1.0264	0.71051	0.018422	0.42227	0.42828	0.69615	-0.0592	0.0182	-0.0073	-0.0462	0.0165	0.9585
24.7869	1.0831	837.0702	61.9767	-284.3532	-53.1897	794.5122	-0.63825	-0.27183	0.1494	0.06493	0.18116	-0.12145	-0.0592	0.0182	-0.0073	-0.0462	0.0165	0.9585
24.8052	4.6025	814.3829	60.2416	-276.8245	-49.7381	767.9979	-0.35133	-0.66778	0.16005	-0.097605	0.074141	-0.41791	-0.0592	0.0182	-0.0073	-0.0462	0.0165	0.9585
24.8236	8.5263	787.3553	58.1002	-267.8145	-45.8179	737.4504	-0.16932	-0.82435	0.10674	-0.18416	0.053428	-0.52597	-0.0592	0.0182	-0.0073	-0.0462	0.0165	0.9585
24.8419	12.7662	758.9945	55.6903	-258.351	-41.5888	705.7348	-0.077231	-1.0247	0.034945	-0.29311	0.073017	-0.71611	-0.0592	0.0182	-0.0073	-0.0462	0.0165	0.9585
24.8603	17.2126	732.6002	53.2181	-249.5623	-37.2727	675.9306	-0.045862	-1.4822	-0.024273	-0.49923	0.097147	-1.1883	-0.0592	0.0182	-0.0073	-0.0462	0.0165	0.9585
24.8786	21.7548	711.2494	50.9276	-242.5018	-33.1203	650.8622	-0.037487	-2.3346	-0.051737	-0.85032	0.096373	-2.0754	-0.0592	0.0182	-0.0073	-0.0462	0.0165	0.9585
24.897	26.2996	697.3109	49.0488	-237.9797	-29.3607	632.6593	-0.01229	-3.624	-0.032294	-1.3602	0.043117	-3.4152	-0.0592	0.0182	-0.0073	-0.0462	0.0165	0.9585
24.9154	30.7725	692.0353	47.7603	-236.4211	-26.1703	622.4102	0.069943	-5.2625	0.046214	-1.9949	-0.088346	-5.1144	-0.0592	0.0182	-0.0073	-0.0462	0.0165	0.9585
24.9337	35.1059	695.3087	47.1806	-237.7771	-23.672	619.9733	0.2522	-6.9848	0.19538	-2.654	-0.32834	-6.9056	-0.0592	0.0182	-0.0073	-0.0462	0.0165	0.9585
24.9521	39.2297	705.6386	47.3607	-241.5175	-21.9347	624.0006	0.57726	-8.293	0.42476	-3.1495	-0.70145	-8.2891	-0.0592	0.0182	-0.0073	-0.0462	0.0165	0.9585
24.9704	43.0575	720.3989	48.2659	-246.7137	-20.9648	632.1827	1.0791	-8.3971	0.73588	-3.1814	-1.2171	-8.4692	-0.0592	0.0182	-0.0073	-0.0462	0.0165	0.9585
24.9888	46.483	736.2404	49.7611	-252.1841	-20.696	641.6242	1.7759	-6.1677	1.1118	-2.3206	-1.8589	-6.3027	-0.0592	0.0182	-0.0073	-0.0462	0.0165	0.9585
25.0071	49.385	749.5812	51.6213	-256.6692	-20.9953	649.2763	2.6525	-0.13961	1.5079	-0.011568	-2.5673	-0.2997	-0.0592	0.0182	-0.0073	-0.0462	0.0165	0.9585
25.0255	51.6269	757.0765	53.5722	-258.9974	-21.6957	652.3422	3.6314	11.4004	1.8376	4.3946	-3.2135	11.2933	-0.0592	0.0182	-0.0073	-0.0462	0.0165	0.9585
25.0439	53.0693	756.0315	55.3076	-258.235	-22.6068	648.6088	4.5373	30.1893	1.9503	11.5559	-3.5644	30.268	-0.0592	0.0182	-0.0073	-0.0462	0.0165	0.9585
25.0622	53.6057	744.6991	56.5038	-253.7992	-23.5119	636.6686	4.9706	57.6352	1.619	22.0053	-3.2282	58.0894	-0.0592	0.0182	-0.0073	-0.0462	0.0165	0.9585
25.0806	53.1749	722.3292	56.8324	-245.4798	-24.1648	615.945	4.1144	94.3552	0.57671	35.9716	-1.6257	95.4324	-0.0592	0.0182	-0.0073	-0.0462	0.0165	0.9585
25.0989	51.7784	689.0262	55.998	-233.3827	-24.3127	586.5518	1.1847	139.7555	-1.4402	53.2154	1.7916	141.7505	-0.0592	0.0182	-0.0073	-0.0462	0.0165	0.9585
25.1173	49.5164	645.6741	53.8117	-217.888	-23.7463	549.1986	-3.6953	191.7266	-4.6174	72.9077	7.1461	194.8761	-0.0592	0.0182	-0.0073	-0.0462	0.0165	0.9585
25.1356	46.6077	593.9857	50.2601	-199.6566	-22.3514	505.2259	-9.698	246.6961	-8.9231	93.6664	14.0632	251.0406	-0.0592	0.0182	-0.0073	-0.0462	0.0165	0.9585
25.154	43.3742	536.5484	45.5323	-179.6328	-20.1358	456.6631	-15.8905	301.4709	-13.9736	114.268	21.7745	306.855	-0.0592	0.0182	-0.0073	-0.0462	0.0165	0.9585
25.1724	40.1349	476.4194	39.9923	-158.8947	-17.2478	405.9335	-21.5486	354.1993	-19.2288	134.0156	29.4525	360.3468	-0.0592	0.0182	-0.0073	-0.0462	0.0165	0.9585
25.1907	37.0675	416.4429	34.0678	-138.4147	-13.9393	355.3298	-26.1379	403.7404	-24.1642	152.4967	36.371	410.3031	-0.0592	0.0182	-0.0073	-0.0462	0.0165	0.9585
25.2091	34.1654	358.8672	28.1541	-118.931	-10.5097	306.7063	-29.3259	449.175	-28.4073	169.3877	42.0365	455.773	-0.0592	0.0182	-0.0073	-0.0462	0.0165	0.9585
25.2274	31.3157	305.2523	22.5605	-100.9295	-7.2353	261.3726	-31.0182	489.8464	-31.7787	184.4617	46.2404	496.1141	-0.0592	0.0182	-0.0073	-0.0462	0.0165	0.9585
25.2458	28.399	256.5158	17.5136	-84.673	-4.34	220.1143	-31.3239	525.5399	-34.2933	197.6581	49.0495	531.1662	-0.0592	0.0182	-0.0073	-0.0462	0.0165	0.9585
25.2641	25.3295	213.0672	13.1748	-70.2501	-1.9934	183.289	-30.5005	556.6081	-36.1033	209.1304	50.7212	561.3476	-0.0592	0.0182	-0.0073	-0.0462	0.0165	0.9585
25.2825	22.0806	174.9651	9.642	-57.6359	-0.3035	150.9543	-28.887	583.8823	-37.4305	219.2114	51.6077	587.5453	-0.0592	0.0182	-0.0073	-0.0462	0.0165	0.9585
25.3009	18.6885	142.0556	6.9427	-46.7438	0.69768	122.9777	-26.8144	608.3828	-38.4995	228.297	52.055	610.8179	-0.0592	0.0182	-0.0073	-0.0462	0.0165	0.9585
25.3192	15.2291	114.0617	5.0302	-37.4603	1.0548	99.1182	-24.5779	630.9654	-39.5015	236.7088	52.3568	632.0563	-0.0592	0.0182	-0.0073	-0.0462	0.0165	0.9585
25.3376	11.8006	90.5944	3.7974	-29.6536	0.87609	79.0433	-22.4407	652.0793	-40.5749	244.5998	52.7414	651.7659	-0.0592	0.0182	-0.0073	-0.0462	0.0165	0.9585
25.3559	8.5124	71.1239	3.086	-23.1606	0.32258	62.3052	-20.6344	671.7543	-41.7923	251.9544	53.3619	670.0573	-0.0592	0.0182	-0.0073	-0.0462	0.0165	0.9585
25.3743	5.4638	55.0298	2.7154	-17.7939	-0.42504	48.3881	-19.3469	689.7825	-43.1805	258.6651	54.3134	686.8124	-0.0592	0.0182	-0.0073	-0.0462	0.0165	0.9585
25.3926	2.7512	41.7052	2.5148	-13.3691	-1.1923	36.7997	-18.702	706.0189	-44.7293	264.6561	55.6309	701.9516	-0.0592	0.0182	-0.0073	-0.0462	0.0165	0.9585
25.411	0.49029	30.6372	2.3531	-9.7268	-1.8321	27.1305	-18.7373	720.6377	-46.3813	269.9845	57.2706	715.6606	-0.0592	0.0182	-0.0073	-0.0462	0.0165	0.9585
25.4294	-1.2014	21.4529	2.1489	-6.742	-2.2412	19.081	-19.3971	734.1803	-48.035	274.8592	59.1086	728.4301	-0.0592	0.0182	-0.0073	-0.0462	0.0165	0.9585
25.4477	-2.2382	13.9263	1.8641	-4.3291	-2.3625	12.4726	-20.5316	747.3966	-49.5862	279.5778	60.9824	740.9077	-0.0592	0.0182	-0.0073	-0.0462	0.0165	0.9585
